<svg xmlns="http://www.w3.org/2000/svg" xmlns:xlink="http://www.w3.org/1999/xlink" viewBox="0 0 24 24" width="24" height="24" preserveAspectRatio="xMidYMid meet" style="width: 100%; height: 100%; transform: translate3d(0px, 0px, 0px); content-visibility: visible;"><defs><clipPath id="__lottie_element_108"><rect width="24" height="24" x="0" y="0"></rect></clipPath></defs><g clip-path="url(#__lottie_element_108)"><g transform="matrix(1,0,0,1,17.5,17.5)" opacity="1" style="display: block;"><g opacity="1" transform="matrix(1,0,0,1,0,0)"><path fill="rgb(255,255,255)" fill-opacity="0.8" d=" M-2.5,0.5 C-2.5,0.5 0.5,0.5 0.5,0.5 C0.5,0.5 0.5,-2.5 0.5,-2.5 C0.5,-2.5 2.5,-2.5 2.5,-2.5 C2.5,-2.5 2.5,0.5 2.5,0.5 C2.5,1.6050000190734863 1.6050000190734863,2.5 0.5,2.5 C0.5,2.5 -2.5,2.5 -2.5,2.5 C-2.5,2.5 -2.5,0.5 -2.5,0.5z"></path></g></g><g transform="matrix(1,0,0,1,17.5,6.5)" opacity="1" style="display: block;"><g opacity="1" transform="matrix(1,0,0,1,0,0)"><path fill="rgb(255,255,255)" fill-opacity="0.8" d=" M-2.5,-2.5 C-2.5,-2.5 -2.5,-0.5 -2.5,-0.5 C-2.5,-0.5 0.5,-0.5 0.5,-0.5 C0.5,-0.5 0.5,2.5 0.5,2.5 C0.5,2.5 2.5,2.5 2.5,2.5 C2.5,2.5 2.5,-0.5 2.5,-0.5 C2.5,-1.6050000190734863 1.6050000190734863,-2.5 0.5,-2.5 C0.5,-2.5 -2.5,-2.5 -2.5,-2.5z"></path></g></g><g transform="matrix(1,0,0,1,6.5,6.5)" opacity="1" style="display: block;"><g opacity="1" transform="matrix(1,0,0,1,0,0)"><path fill="rgb(255,255,255)" fill-opacity="0.8" d=" M-2.5,2.5 C-2.5,2.5 -0.5,2.5 -0.5,2.5 C-0.5,2.5 -0.5,-0.5 -0.5,-0.5 C-0.5,-0.5 2.5,-0.5 2.5,-0.5 C2.5,-0.5 2.5,-2.5 2.5,-2.5 C2.5,-2.5 -0.5,-2.5 -0.5,-2.5 C-1.6050000190734863,-2.5 -2.5,-1.6050000190734863 -2.5,-0.5 C-2.5,-0.5 -2.5,2.5 -2.5,2.5z"></path></g></g><g transform="matrix(1,0,0,1,6.5,17.5)" opacity="1" style="display: block;"><g opacity="1" transform="matrix(1,0,0,1,0,0)"><path fill="rgb(255,255,255)" fill-opacity="0.8" d=" M-0.5,-2.5 C-0.5,-2.5 -2.5,-2.5 -2.5,-2.5 C-2.5,-2.5 -2.5,0.5 -2.5,0.5 C-2.5,1.6050000190734863 -1.6050000190734863,2.5 -0.5,2.5 C-0.5,2.5 2.5,2.5 2.5,2.5 C2.5,2.5 2.5,0.5 2.5,0.5 C2.5,0.5 -0.5,0.5 -0.5,0.5 C-0.5,0.5 -0.5,-2.5 -0.5,-2.5z"></path></g></g></g></svg>