<svg xmlns="http://www.w3.org/2000/svg" width="1em" height="1em" viewBox="0 0 24 24" fill="#CBD5E0" class="size-5 cursor-pointer text-lg leading-6"><g clip-path="url(#clip0_2918_1550)"><path fill-rule="evenodd" clip-rule="evenodd" d="M19.002 11.6a3.101 3.101 0 00-3.1 3.1v4.2c0 1.712 1.388 3.101 3.1 3.101a3.102 3.102 0 003.1-3.1v-4.2c0-1.712-1.389-3.101-3.1-3.101zm0 2a1.1 1.1 0 011.1 1.1v4.2c-.001.607-.493 1.1-1.1 1.101-.607 0-1.1-.494-1.1-1.1v-4.2a1.1 1.1 0 011.1-1.1z"></path><path d="M13.3 11.6c-.551 0-1 .448-1 1v8.401c.002.551.45 1 1 1 .553 0 1-.448 1-1v-8.4a1 1 0 00-1-1.001z"></path><path d="M12 2C6.477 2 2 6.477 2 12a9.968 9.968 0 002.667 6.799 10.01 10.01 0 004 2.632 1 1 0 10.666-1.886A8.012 8.012 0 014 12a8 8 0 018-8c2.21 0 4.209.894 5.657 2.343a58.037 58.037 0 011.595 1.708c.276.304.527.582.708.785l.214.24.058.066.015.016.004.005.001.001A1 1 0 0022 8.5v-4a1 1 0 10-2 0v1.407a38.243 38.243 0 00-.929-.978A9.972 9.972 0 0012 2z"></path></g><defs><clipPath id="clip0_2918_1550"><rect width="24" height="24" transform="matrix(-1 0 0 1 24 0)"></rect></clipPath></defs></svg>
