<svg xmlns="http://www.w3.org/2000/svg" width="1em" height="1em" viewBox="0 0 24 24" fill="#CBD5E0" class="size-5 cursor-pointer text-lg leading-6"><g clip-path="url(#clip0_2918_1537)"><path d="M3 11.6a1 1 0 011 1v8.401a1.001 1.001 0 01-2 0v-8.4a1 1 0 011-1z"></path><path fill-rule="evenodd" clip-rule="evenodd" d="M8.602 11.6a3.1 3.1 0 013.1 3.1v4.2c0 1.712-1.389 3.1-3.1 3.101-1.712 0-3.1-1.39-3.1-3.1v-4.2a3.1 3.1 0 013.1-3.1zm0 2a1.1 1.1 0 00-1.1 1.1v4.2c0 .607.493 1.1 1.1 1.101.607 0 1.1-.494 1.1-1.1v-4.2a1.1 1.1 0 00-1.1-1.1z"></path><path d="M12 2c5.523 0 10 4.477 10 10a9.968 9.968 0 01-2.667 6.799 10.01 10.01 0 01-4 2.632 1 1 0 11-.666-1.886A8.012 8.012 0 0020 12a8 8 0 00-8-8c-2.21 0-4.208.894-5.657 2.343A58.047 58.047 0 004.748 8.05c-.276.304-.527.582-.708.785l-.214.24-.058.066-.015.016a.09.09 0 00-.004.005l-.001.001A1 1 0 012 8.5v-4a1 1 0 012 0v1.407c.344-.371.676-.726.929-.978A9.972 9.972 0 0112 2z"></path></g><defs><clipPath id="clip0_2918_1537"><rect width="24" height="24"></rect></clipPath></defs></svg>
